<?xml version="1.0" standalone="no"?>
<!DOCTYPE svg PUBLIC "-//W3C//DTD SVG 20010904//EN"
 "http://www.w3.org/TR/2001/REC-SVG-20010904/DTD/svg10.dtd">
<svg version="1.0" xmlns="http://www.w3.org/2000/svg"
 width="2048.000000pt" height="2048.000000pt" viewBox="0 0 2048.000000 2048.000000"
 preserveAspectRatio="xMidYMid meet">

<g transform="translate(0.000000,2048.000000) scale(0.100000,-0.100000)"
fill="#000000" stroke="none">
<path d="M14242 11730 c-201 -36 -434 -129 -597 -238 -135 -91 -301 -256 -389
-389 -172 -260 -249 -537 -249 -888 1 -274 37 -442 143 -660 74 -154 160 -273
285 -399 55 -55 93 -94 84 -88 -19 14 -33 4 -18 -14 7 -8 6 -14 -2 -20 -8 -5
-9 -3 -4 6 5 8 4 11 -3 6 -7 -4 -10 1 -7 13 2 11 -4 26 -13 33 -10 8 -13 9 -9
1 13 -21 -14 -26 -37 -7 -12 11 -2 0 23 -23 25 -23 47 -40 49 -39 2 2 16 -10
32 -26 17 -17 35 -26 41 -22 7 4 9 3 5 -4 -8 -14 110 -88 234 -145 119 -56
226 -92 349 -117 101 -20 342 -41 401 -35 19 2 76 6 125 10 168 12 387 71 530
142 118 60 205 113 205 127 0 8 7 19 15 26 10 8 13 21 9 33 -5 16 -3 19 11 14
9 -4 25 -2 35 3 13 7 21 7 25 0 4 -6 23 3 45 21 22 18 37 36 33 42 -3 6 -1 7
4 4 11 -7 123 112 178 188 23 31 25 36 7 21 -12 -11 -25 -16 -29 -13 -3 4 -1
7 6 7 8 0 11 8 8 20 -3 11 -1 20 5 20 5 0 19 10 30 23 11 12 17 16 13 10 -3
-7 -2 -13 4 -13 11 0 66 88 102 163 22 45 23 50 8 76 -15 26 -14 33 12 117 16
49 29 92 29 96 0 4 5 19 12 35 6 15 10 32 9 36 -1 5 3 25 9 46 32 121 29 450
-6 626 -124 619 -598 1078 -1219 1180 -129 21 -401 19 -533 -5z m446 -545
c269 -51 500 -230 616 -476 72 -152 114 -369 101 -519 -7 -88 -24 -190 -33
-205 -4 -5 -7 -16 -9 -24 -1 -7 -6 -18 -12 -24 -7 -7 -8 -2 -4 14 5 24 5 24
-10 4 -13 -15 -17 -17 -17 -5 -1 10 -4 9 -10 -5 -11 -26 -12 -44 -1 -27 6 11
10 10 15 -3 4 -12 0 -18 -13 -22 -11 -3 -22 -12 -26 -20 -4 -13 -3 -13 8 -4
12 9 13 6 9 -15 -2 -14 0 -29 6 -33 12 -7 -32 -102 -49 -109 -5 -2 -9 -10 -9
-18 0 -9 -3 -13 -8 -10 -4 2 -16 -3 -27 -11 -19 -15 -19 -15 5 -9 21 6 22 5 8
-4 -12 -7 -24 -8 -36 -1 -23 12 -43 -4 -35 -27 4 -10 2 -13 -5 -8 -6 3 -13 2
-16 -3 -4 -5 -2 -13 4 -16 7 -4 7 -11 2 -18 -5 -7 -8 -20 -7 -29 3 -18 -10
-32 -30 -33 -5 -1 -9 -6 -7 -13 1 -7 -1 -11 -5 -11 -5 1 -10 1 -13 0 -3 -1
-20 -4 -38 -5 -28 -3 -31 -2 -20 11 7 9 -17 -3 -52 -27 -36 -23 -64 -46 -62
-52 1 -5 -2 -7 -7 -4 -5 3 -43 -7 -84 -24 -116 -46 -257 -65 -387 -51 -58 6
-116 14 -129 17 -18 6 -22 4 -16 -6 6 -9 4 -11 -4 -6 -7 5 -20 1 -30 -9 -20
-18 -76 -11 -64 8 3 6 1 7 -6 3 -20 -13 -152 61 -236 132 -193 164 -302 385
-324 657 -22 280 41 518 186 710 198 261 550 393 881 330z m662 -1282 c0 -22
-17 -50 -24 -42 -5 5 15 59 22 59 1 0 2 -8 2 -17z m-170 -253 c0 -5 -5 -10
-11 -10 -5 0 -7 5 -4 10 3 6 8 10 11 10 2 0 4 -4 4 -10z m-1703 -585 c0 -8 -4
-12 -9 -9 -5 3 -6 10 -3 15 9 13 12 11 12 -6z m68 -44 c3 -5 2 -12 -3 -15 -5
-3 -9 1 -9 9 0 17 3 19 12 6z"/>
<path d="M14100 9446 c0 -3 9 -10 20 -16 11 -6 20 -8 20 -6 0 3 -9 10 -20 16
-11 6 -20 8 -20 6z"/>
<path d="M11436 11730 c-320 -51 -545 -201 -665 -443 -71 -143 -95 -247 -94
-412 1 -163 19 -251 79 -374 36 -74 61 -109 117 -165 135 -135 282 -207 648
-320 474 -145 563 -192 623 -326 24 -54 28 -72 25 -139 -3 -65 -9 -85 -34
-126 -17 -27 -48 -61 -70 -76 -35 -24 -41 -25 -60 -13 -12 8 -26 11 -30 7 -5
-5 -4 0 3 9 12 15 10 15 -34 2 -26 -8 -58 -14 -71 -14 -12 0 -23 -4 -23 -10 0
-5 7 -10 16 -10 8 0 13 -4 10 -8 -3 -5 8 -7 23 -4 16 2 32 -1 36 -8 5 -9 1
-10 -15 -5 -14 4 -20 3 -16 -3 11 -18 -127 -24 -243 -12 -61 7 -109 16 -106
20 2 4 -6 5 -20 3 -28 -6 -192 39 -290 79 -96 39 -237 126 -325 200 l-73 62
-26 -34 c-99 -129 -256 -328 -271 -341 -41 -36 -35 -53 45 -120 72 -59 75 -63
59 -81 -18 -19 -29 -24 -19 -8 6 9 -8 14 -28 11 -5 -1 -5 4 -2 10 4 6 18 9 32
6 16 -3 21 -1 15 5 -6 6 -21 11 -35 11 -16 1 -22 6 -17 12 6 7 2 15 -9 22 -25
15 -36 4 -13 -13 18 -14 19 -14 -38 -5 -2 1 1 6 8 13 7 7 12 19 12 27 0 8 -3
11 -7 8 -3 -4 -13 -1 -21 5 -18 15 -42 19 -42 7 0 -6 -5 -7 -10 -4 -6 4 -8 10
-6 14 3 4 -2 8 -10 8 -10 0 -9 -7 8 -24 13 -14 28 -21 37 -18 9 3 12 3 8 -1
-11 -11 33 -54 55 -54 11 0 17 -4 13 -9 -6 -11 81 -74 101 -74 7 0 11 -4 8 -8
-5 -9 83 -63 201 -122 276 -137 600 -206 915 -194 204 8 433 56 447 94 3 8 9
10 12 5 3 -6 27 0 56 14 45 22 44 25 -2 7 -10 -4 -4 5 12 20 22 20 25 25 10
20 -29 -9 -19 -1 59 51 43 28 74 42 80 36 12 -9 32 3 56 34 9 12 10 17 3 12
-28 -16 -10 14 41 69 49 54 54 57 60 37 4 -12 4 -27 1 -34 -4 -7 3 -2 14 11
12 12 18 28 14 34 -3 5 -2 7 4 4 5 -3 19 11 31 33 17 32 19 46 11 74 -8 29 -5
52 15 118 14 46 28 97 32 113 l8 30 4 -28 c2 -15 8 -25 13 -22 5 4 9 0 10 -7
0 -7 5 1 10 17 6 17 12 86 14 155 2 69 1 113 -1 98 -3 -16 -10 -28 -15 -28 -6
0 -7 4 -4 10 3 5 -1 20 -10 32 -17 23 -17 22 -11 -17 4 -27 3 -33 -3 -20 -5
11 -14 53 -20 93 -41 269 -197 460 -485 598 -122 57 -228 95 -506 179 -301 91
-421 161 -476 278 -45 98 -23 240 47 304 177 160 561 110 956 -125 l101 -60
140 221 c77 121 138 226 136 231 -8 20 -213 147 -317 196 -123 58 -253 102
-384 130 -112 24 -434 36 -537 20z m-641 -2724 c11 -8 15 -16 10 -16 -6 0 -16
5 -23 12 -9 9 -12 9 -12 0 0 -6 9 -17 20 -24 11 -7 20 -16 20 -20 0 -4 -20 5
-45 20 -48 29 -58 43 -24 37 18 -4 19 -2 7 12 -11 14 -11 15 7 5 11 -6 29 -17
40 -26z m1735 -30 c0 -3 -4 -8 -10 -11 -5 -3 -10 -1 -10 4 0 6 5 11 10 11 6 0
10 -2 10 -4z m-1636 -62 c3 -8 2 -12 -4 -9 -6 3 -10 10 -10 16 0 14 7 11 14
-7z m195 -80 c11 -11 -7 -10 -34 3 l-30 14 30 -6 c16 -4 32 -9 34 -11z"/>
<path d="M5681 11668 c-21 -53 -284 -653 -511 -1163 -78 -176 -219 -493 -313
-705 -94 -212 -175 -388 -180 -391 -5 -3 -8 -9 -8 -13 3 -19 0 -26 -10 -26 -5
0 -7 5 -4 10 11 17 -7 11 -21 -7 -13 -17 -13 -17 -14 2 -1 17 -3 16 -16 -8 -8
-15 -12 -33 -8 -39 4 -7 3 -8 -4 -4 -11 7 -16 -7 -15 -41 1 -7 -4 -10 -10 -6
-6 4 -8 -2 -5 -15 4 -15 0 -25 -10 -32 -10 -5 -12 -10 -5 -10 9 0 10 -7 3 -25
-5 -14 -12 -37 -14 -52 -6 -28 -44 -75 -57 -68 -4 3 -22 -30 -39 -72 -18 -43
-43 -99 -56 -125 -27 -53 -29 -62 -12 -52 7 5 8 3 4 -5 -5 -7 -11 -10 -14 -6
-5 5 -42 -60 -42 -75 0 -3 169 -5 376 -5 l376 0 78 185 c56 131 74 186 65 188
-10 2 -11 11 -5 33 8 28 7 29 -7 17 -19 -15 -20 -19 17 70 13 28 29 52 36 52
8 0 14 5 14 11 0 5 -4 7 -10 4 -12 -8 -13 5 -1 23 6 10 10 9 14 -7 8 -32 31
-25 50 14 22 45 22 62 2 45 -14 -11 -14 -10 -6 13 8 20 7 26 -2 24 -7 -1 -11
5 -10 13 3 15 62 161 156 385 25 61 114 274 197 475 83 201 181 438 218 527
37 89 70 159 73 155 4 -4 73 -167 154 -362 82 -195 178 -427 215 -515 36 -88
72 -170 79 -182 l12 -23 -260 0 -259 0 -13 -37 c-7 -21 -50 -132 -96 -246 -45
-114 -83 -212 -83 -218 0 -5 178 -9 463 -9 l464 0 39 -97 c46 -114 49 -125 33
-98 -7 11 -16 22 -19 25 -4 3 -10 14 -13 25 -4 18 -5 18 -6 -2 -1 -21 -21 -34
-21 -15 0 5 -7 17 -15 28 -8 10 8 -34 35 -100 27 -65 51 -120 54 -123 2 -2 5
13 5 34 3 78 3 84 6 81 5 -5 75 -169 75 -175 0 -3 -7 0 -15 7 -12 10 -15 10
-15 0 0 -9 -7 -7 -21 6 -12 10 -20 14 -18 8 2 -5 26 -63 53 -127 l49 -117 311
0 c367 0 450 6 443 29 -3 9 -32 75 -65 146 -33 72 -83 184 -112 250 -29 66
-57 125 -62 130 -6 6 -6 2 0 -11 20 -38 22 -74 6 -74 -11 0 -14 -6 -9 -22 10
-38 -35 49 -85 166 -26 61 -58 136 -72 166 -81 176 -440 981 -583 1305 -92
209 -195 441 -229 515 -35 74 -84 186 -111 248 l-49 112 -263 0 -263 0 -9 -22z
m-371 -2276 c0 -5 -9 -19 -20 -32 -24 -27 -27 -14 -4 18 16 23 24 28 24 14z
m2058 -277 c-3 -3 -9 2 -12 12 -6 14 -5 15 5 6 7 -7 10 -15 7 -18z m99 -212
c1 -22 -1 -24 -8 -10 -6 9 -7 22 -4 27 9 14 10 13 12 -17z m-3064 -35 c-3 -15
-9 -25 -14 -23 -4 3 -3 17 3 30 14 31 18 28 11 -7z"/>
<path d="M7688 10423 c-1 -505 -4 -883 -5 -840 -4 78 -9 87 -32 65 -10 -11
-11 -8 -7 12 4 14 2 39 -3 55 -6 19 -10 -149 -10 -477 l-1 -507 658 -1 c376 0
701 4 758 10 127 13 215 31 192 39 -13 4 -15 10 -7 21 7 11 12 11 15 3 4 -8
13 -9 35 -1 30 10 42 31 12 22 -15 -5 -15 -4 -3 5 20 14 146 44 162 39 7 -3
19 1 26 9 8 7 18 11 23 8 5 -4 9 -2 9 4 0 5 53 37 118 71 299 157 525 401 643
695 107 268 137 575 75 760 -113 335 -341 593 -667 753 -139 69 -268 110 -450
143 -120 22 -148 23 -831 27 l-708 4 -2 -919z m1253 727 c469 -45 760 -323
820 -785 31 -240 -41 -530 -175 -704 -59 -76 -164 -173 -179 -165 -7 4 -9 4
-5 -1 19 -20 -161 -111 -277 -140 -92 -23 -241 -28 -270 -9 -12 8 -33 15 -48
16 -15 1 -27 7 -27 13 0 5 -5 3 -10 -5 -9 -13 -10 -13 -10 0 0 13 -1 13 -10 0
-6 -10 -10 -11 -10 -2 0 9 -38 12 -157 11 -156 0 -198 -6 -191 -24 2 -6 -15
-12 -37 -15 -38 -4 -36 -4 20 -10 l60 -7 -67 -1 -68 -2 0 49 c0 35 4 51 16 55
8 3 13 2 10 -3 -3 -5 3 -11 14 -14 20 -5 20 0 20 236 0 132 -2 238 -4 236 -4
-4 -11 -43 -15 -91 -1 -4 -8 -4 -18 -1 -11 4 -14 3 -9 -5 4 -7 1 -12 -8 -12
-14 0 -16 66 -16 624 l0 624 -39 31 c-22 17 -70 49 -107 71 l-69 40 380 0
c209 0 428 -5 486 -10z"/>
<path d="M16016 9918 c-3 -13 -5 -32 -5 -43 1 -11 5 -2 10 19 10 42 6 62 -5
24z"/>
<path d="M16041 9904 c0 -11 3 -14 6 -6 3 7 2 16 -1 19 -3 4 -6 -2 -5 -13z"/>
<path d="M16031 9873 c0 -6 -4 -20 -7 -30 -5 -14 -4 -15 5 -7 7 7 11 20 8 30
-3 11 -5 14 -6 7z"/>
<path d="M12111 9594 c0 -11 3 -14 6 -6 3 7 2 16 -1 19 -3 4 -6 -2 -5 -13z"/>
<path d="M12104 9500 c-6 -22 -10 -40 -9 -40 11 0 31 49 26 63 -5 13 -9 8 -17
-23z"/>
<path d="M7243 9515 c6 -26 43 -113 59 -140 31 -51 19 -14 -23 70 -21 44 -38
75 -36 70z"/>
<path d="M7243 9416 c0 -8 6 -12 14 -9 7 3 10 9 7 14 -8 14 -21 11 -21 -5z"/>
<path d="M11558 9343 c6 -2 18 -2 25 0 6 3 1 5 -13 5 -14 0 -19 -2 -12 -5z"/>
<path d="M7320 9331 c0 -6 4 -13 10 -16 6 -3 7 1 4 9 -7 18 -14 21 -14 7z"/>
<path d="M11640 9329 c24 -7 215 -11 195 -4 -5 2 -57 5 -115 8 -58 2 -94 0
-80 -4z"/>
<path d="M10509 9303 c-13 -16 -12 -17 4 -4 9 7 17 15 17 17 0 8 -8 3 -21 -13z"/>
<path d="M11575 9310 c3 -5 8 -10 11 -10 2 0 4 5 4 10 0 6 -5 10 -11 10 -5 0
-7 -4 -4 -10z"/>
<path d="M13246 9288 c10 -14 21 -24 23 -22 3 3 -6 15 -18 27 l-24 22 19 -27z"/>
<path d="M10516 9274 c-9 -24 -7 -28 9 -14 17 14 20 30 6 30 -5 0 -12 -7 -15
-16z"/>
<path d="M5286 9265 c-9 -26 -7 -32 5 -12 6 10 9 21 6 23 -2 3 -7 -2 -11 -11z"/>
<path d="M12727 9219 c4 -13 8 -18 11 -10 2 7 -1 18 -6 23 -8 8 -9 4 -5 -13z"/>
<path d="M12616 9074 c-10 -25 1 -29 14 -5 6 12 7 21 1 21 -5 0 -12 -7 -15
-16z"/>
<path d="M15465 9001 c-3 -5 -2 -12 3 -15 5 -3 9 1 9 9 0 17 -3 19 -12 6z"/>
<path d="M15439 8963 c-13 -16 -12 -17 4 -4 9 7 17 15 17 17 0 8 -8 3 -21 -13z"/>
</g>
</svg>
